<svg fill="none" height="24" viewBox="0 0 24 24" width="24" xmlns="http://www.w3.org/2000/svg" xmlns:xlink="http://www.w3.org/1999/xlink"><clipPath id="a"><path d="m0 0h24v24h-24z"/></clipPath><g clip-path="url(#a)" fill="#fff"><path d="m3.10667 2.13333.26.26c.26.25334.26.68 0 .93334l-.00667.00666c-.26.26-.67333.26-.93333 0l-.26-.26c-.26-.25333-.26-.67333 0-.93333l.00666-.00667c.25334-.25333.67334-.26.93334 0z"/><path d="m.66 6.63333h.68c.36667 0 .66.29334.66.66667v.00667c0 .36666-.29333.66-.66667.65333h-.67333c-.366667 0-.66-.29333-.66-.66v-.00667c0-.36666.293333-.66.66-.66z"/><path d="m7.33333 0h.00667c.36667 0 .66.293333.66.66v.64667c0 .36666-.29333.66-.66667.65333h-.00666c-.36667 0-.66-.29333-.66-.66v-.64c0-.366667.29333-.66.66666-.66z"/><path d="m11.56 2.13333c.26-.25333.68-.25333.94.00667s.26.67333 0 .93333l-.26.26c-.2533.26-.6733.26-.9333 0l-.0067-.00666c-.26-.25334-.26-.67334 0-.93334z"/><path d="m3.33333 7.3c0-2.20667 1.79334-4 4-4 1.51466 0 2.83457.84492 3.51347 2.08847-.7741.68826-1.35245 1.59181-1.64123 2.61672-.06809-.00344-.13663-.00519-.20557-.00519-1.75191 0-3.24077 1.12627-3.78202 2.6942-1.13115-.70714-1.88465-1.96384-1.88465-3.3942z"/><path d="m3.10667 12.46c-.26.26-.68.26-.94 0s-.26-.6733-.00667-.94l.26-.26c.26-.26.68-.26.94 0l.00667.0067c.25333.2533.26.6733 0 .9333z"/><path d="m20 19h-13c-1.65685 0-3-1.3431-3-3 0-1.3075.83649-2.4197 2.00352-2.8305-.00234-.0562-.00352-.1127-.00352-.1695 0-2.2091 1.79086-4 4-4 .0689 0 .1375.00175.2056.00519.6512-2.31116 2.775-4.00519 5.2944-4.00519 3.0376 0 5.5 2.46243 5.5 5.5 0 .2087-.0116.4147-.0343.6174 1.7426.432 3.0343 2.0064 3.0343 3.8826 0 2.2091-1.7909 4-4 4z"/><path d="m9.98541 23.0292 1.32919-2.6584c.1136-.2272.3459-.3708.6-.3708.4987 0 .823.5248.6.9708l-1.3292 2.6584c-.1136.2272-.3459.3708-.6.3708-.4987 0-.82301-.5248-.59999-.9708z"/><path d="m12.9854 23.0292 1.3292-2.6584c.1136-.2272.3459-.3708.6-.3708.4987 0 .823.5248.6.9708l-1.3292 2.6584c-.1136.2272-.3459.3708-.6.3708-.4987 0-.823-.5248-.6-.9708z"/></g></svg>