<svg fill="none" height="24" viewBox="0 0 24 24" width="24" xmlns="http://www.w3.org/2000/svg" xmlns:xlink="http://www.w3.org/1999/xlink"><clipPath id="a"><path d="m0 0h24v24h-24z"/></clipPath><g clip-path="url(#a)" fill="#fff"><path d="m4.39616 12.4643c.18917-.1199.39267-.2193.60736-.2948-.00234-.0562-.00352-.1127-.00352-.1695 0-1.9855 1.44656-3.63305 3.34325-3.94634-.72238-.34012-1.39882-.80914-1.9949-1.40745-1.5618-1.55343-2.24331-3.66013-2.05163-5.688803.05679-.588741-.7809-1.220041-1.31333-.844098-.31946.226984-.61762.482342-.90159.766072-2.775735 2.766379-2.775735 7.263509 0 10.029919.68357.6882 1.4723 1.2066 2.31436 1.555z"/><path d="m11.06 5.20828-.5268-1.74658 1.7093-1.29226-2.1551-.05995-.71617-1.998333-.71612 1.998333-2.15513.05995 1.70924 1.29226-.61479 2.0383 1.7768-1.20566 1.53527 1.04178c.0504-.04352.1016-.08614.1535-.12784z"/><path d="m17.7157 1.44339-1.108.83263.3986 1.31891-1.1485-.77935-1.1485.77935.3986-1.31891-1.1079-.83263 1.3917-.03331.4661-1.298918.4662 1.298918z"/><path d="m20 19h-13c-1.65685 0-3-1.3431-3-3 0-1.3075.83649-2.4197 2.00352-2.8305-.00234-.0562-.00352-.1127-.00352-.1695 0-2.2091 1.79086-4 4-4 .0689 0 .1375.00175.2056.00519.6512-2.31116 2.775-4.00519 5.2944-4.00519 3.0376 0 5.5 2.46243 5.5 5.5 0 .2087-.0116.4147-.0343.6174 1.7426.432 3.0343 2.0064 3.0343 3.8826 0 2.2091-1.7909 4-4 4z"/><path d="m14.5517 24h-1.1034l.1103-1.2222-1.0069.7083-.5517-.9722 1.1034-.5139-1.1034-.5139.5517-.9722 1.0069.7083-.1103-1.2222h1.1034l-.1103 1.2222 1.0069-.7083.5517.9722-1.1034.5139 1.1034.5139-.5517.9722-1.0069-.7083z"/></g></svg>